<svg xmlns="http://www.w3.org/2000/svg" viewBox="0 0 2241 408" width="2241" height="408">
	<defs>
		<clipPath clipPathUnits="userSpaceOnUse" id="cp1">
			<path d="M-30 -133L2264 -133L2264 497L-30 497L-30 -133Z" />
		</clipPath>
	</defs>
	<style>
		tspan { white-space:pre }
		.shp0 { fill: #ffffff } 
		.shp1 { fill: #2c2e35 } 
		.shp2 { fill: #f9c804 } 
		.shp3 { fill: #00ff00 } 
	</style>
	<g id="Clip-Path: Page 1" clip-path="url(#cp1)">
		<g id="Page 1">
			<path id="Path 1" fill-rule="evenodd" class="shp0" d="M2264 -130.5L2264 497L-29.03 497L-29.03 -130.5L2264 -130.5ZM-6.99 476.45L120 476.45L120 476L1338 476L1338 -109.81L-6.99 -109.81L-6.99 476.45Z" />
			<path id="Path 2" class="shp1" d="M1338 476L1338 -109.81L-6.99 -109.81L-6.99 476L120 476L1338 476Z" />
			<path id="Path 3" fill-rule="evenodd" class="shp2" d="M1373.72 306.14L1373.8 100.48L1440.1 101.52L1440.1 176.06L1512.04 176.06L1512.04 176.04L1511.92 101.9L1511.92 101.66L1578.58 101.5L1578.58 103.4L1578.47 171.06L1578.26 306.14L1511.96 306.14L1512.02 229.46L1440.1 229.46L1440.1 306.14L1373.72 306.14ZM1623.84 306.14L1623.52 100.68L1802.16 100.68L1802.16 150.42L1689.84 150.42L1689.84 151.87L1689.92 178.42L1786.02 179.64L1785.93 207.6L1785.87 225.3L1785.86 226.1L1782.53 226.6L1763.02 226.6L1690.12 226.38L1689.89 247.22L1689.83 253.29L1689.78 256.46L1689.79 256.46L1689.78 257.48L1802.16 257.48L1802.16 306.14L1623.84 306.14ZM1839.8 306.14L1839.84 101.58L1906.52 101.44L1906.52 101.67L1906.4 253.8L2012.14 253.96L2012.31 303.37L2012.32 306.14L1839.8 306.14ZM2039.96 306.3L2039.82 101.52C2039.82 101.52 2128.58 101.05 2145.64 100.83C2155.05 101.07 2162.34 101.48 2165.85 102.13C2190.08 106.62 2207.95 120.93 2216.67 140.57C2221.65 153.25 2222.67 167.63 2221.81 181.22C2219 200.77 2208.83 219.45 2193.05 230.49C2185.37 235.66 2176.57 239.14 2167.22 240.28C2146.96 242.56 2126.5 240.52 2106.18 241.64C2106.64 263.19 2106.18 284.75 2106.36 306.3L2039.96 306.3ZM2106.18 192.24C2114.45 192.59 2122.75 192.67 2131.03 192.37C2131.85 192.37 2132.67 192.37 2133.49 192.36C2134.75 192.35 2135.96 192.23 2137.13 192.05C2138.6 191.96 2140.06 191.9 2141.52 191.78C2148.63 189.32 2152.66 183.34 2153.92 176.56C2154.29 174.71 2154.42 172.74 2154.32 170.69C2154.32 170.66 2154.32 170.62 2154.32 170.58C2154.28 169.76 2154.2 168.92 2154.07 168.07C2154.03 167.75 2153.97 167.44 2153.92 167.13C2153.87 166.83 2153.84 166.53 2153.77 166.22C2153.71 165.92 2153.62 165.66 2153.55 165.37C2153.46 164.99 2153.37 164.62 2153.26 164.24C2153.1 163.67 2152.91 163.12 2152.72 162.59C2152.58 162.21 2152.45 161.83 2152.29 161.45C2152.2 161.24 2152.1 161.03 2152.01 160.83C2150.55 157.53 2148.45 154.57 2145.68 152.34C2143.44 151.74 2141.22 151.12 2139.04 150.48C2128.37 150.58 2117.61 149.45 2107.04 150.85C2106.5 150.86 2106.18 150.87 2106.18 150.88L2106.18 192.24Z" />
			<path id="Path 4" fill-rule="evenodd" class="shp3" d="M1052.28 350C1043.74 350 1035.2 347.97 1027.53 343.92C1011.81 335.6 1001.91 319.88 1001.69 302.88L999 95.58C998.81 80.59 1007.18 66.53 1020.84 58.88C1034.51 51.23 1051.61 51.03 1065.46 58.36L1258.87 160.7C1274.24 168.84 1283.92 184.22 1284.14 200.83C1284.35 217.45 1275.07 233.05 1259.92 241.53L1078.13 343.33C1070.19 347.77 1061.24 350 1052.28 350ZM1039.48 95.11L1042.18 302.42C1042.22 305.81 1044.2 308.96 1047.34 310.62C1050.48 312.28 1054.36 312.23 1057.45 310.5L1239.25 208.7C1242 207.16 1243.69 204.32 1243.65 201.3C1243.61 198.28 1241.85 195.48 1239.05 194L1045.65 91.66C1044.37 90.98 1042.78 91 1041.51 91.71C1040.24 92.42 1039.47 93.72 1039.48 95.11Z" />
			<path id="Path 5" class="shp0" d="M534.86 97.54C559.12 95.94 584.44 95.78 607.24 105.32C621.46 110.94 634.48 120.94 641.32 134.84C646.02 144 647.42 154.42 647.74 164.58C626.62 165.32 605.48 164.72 584.36 164.92C584.38 155.04 577.8 145.94 568 143.82C532.83 136.7 516.2 161.73 548.84 170.34C574.42 177.56 602.12 179.08 625.6 192.58C639.2 199.98 649.88 213.38 652.16 228.92C653.24 241.44 653.28 254.5 648.62 266.38C642.22 285.06 625.6 298.7 607.2 304.78C574.87 316.44 506.43 314.88 478.56 289.44C464.04 276.42 456.95 257.39 458.07 238.37C479.35 238.51 521.95 238.59 521.95 238.59C521.95 238.59 524.56 255.47 540.86 261.14C552.52 265.19 569.17 264.43 579.74 257.42C582.01 255.92 583.9 253.6 584.22 250.89C584.53 248.29 583.35 245.68 581.57 243.76C579.8 241.85 577.47 240.53 575.11 239.4C561.08 232.73 544.76 231.25 529.74 227.78C514.46 224.24 500.28 219.34 486.86 211.14C451.69 189.67 442.16 108.27 534.86 97.54ZM23.28 101.02L226.3 101.02L226.24 154.28L158.4 154.24L158.46 307.02L91.38 307.02L91.36 154.2L23.3 154.26L23.28 101.02Z" />
			<path id="Path 6" fill-rule="evenodd" class="shp0" d="M284.86 306.72L292.98 277.74L364.08 277.76L372.38 306.7L444.54 306.8L369.44 100.98L290.5 100.98L215.22 306.92L284.86 306.72ZM350.16 231.04L307.24 231.02L328.9 158.86L350.16 231.04ZM684.42 306.96L752.18 306.96L752.32 261.22L785.12 234.26L788.46 233.84L829.2 306.96L910.02 306.96L834.26 185.64L908.68 100.98L824.46 100.98L766.48 170.2L752.12 188.76L752.18 100.98L684.42 100.98L684.42 306.96Z" />
		</g>
	</g>
</svg>